<?xml version="1.0" standalone="no"?>
<!DOCTYPE svg PUBLIC "-//W3C//DTD SVG 20010904//EN"
 "http://www.w3.org/TR/2001/REC-SVG-20010904/DTD/svg10.dtd">
<svg version="1.0" xmlns="http://www.w3.org/2000/svg"
 width="1280.000000pt" height="1269.000000pt" viewBox="0 0 1280.000000 1269.000000"
 preserveAspectRatio="xMidYMid meet">
<g transform="translate(0.000000,1269.000000) scale(0.100000,-0.100000)"
fill="#ff9800" stroke="none">
<path d="M7185 12680 c-55 -5 -192 -13 -305 -20 -1661 -93 -3156 -599 -3951
-1336 -336 -311 -532 -639 -593 -989 -23 -129 -21 -335 4 -476 27 -148 50
-218 120 -364 103 -213 202 -348 405 -550 194 -195 452 -390 699 -530 l49 -28
-29 -21 c-278 -202 -509 -497 -598 -767 -29 -88 -56 -240 -56 -319 0 -96 -22
2 646 -2950 113 -498 254 -1127 315 -1399 61 -272 123 -536 140 -587 49 -154
135 -349 180 -411 359 -490 637 -754 1055 -1003 831 -495 1929 -663 3053 -469
1026 177 1780 674 2211 1457 144 262 210 446 379 1067 16 61 93 337 170 615
128 463 496 1792 777 2810 63 228 128 456 144 505 112 339 83 582 -106 911
-72 127 -273 350 -403 449 -28 22 -51 44 -51 50 0 5 37 30 83 54 327 177 668
449 884 706 161 192 281 417 345 649 21 77 48 265 48 337 0 66 -36 272 -64
371 -131 450 -506 880 -1082 1241 -867 543 -2142 898 -3509 977 -104 6 -256
15 -338 20 -168 11 -474 11 -622 0z m771 -60 c598 -33 1144 -113 1659 -241
1270 -317 2213 -900 2565 -1585 89 -173 133 -321 152 -508 20 -204 -20 -431
-112 -639 -172 -386 -541 -754 -1057 -1051 l-81 -47 -164 85 c-1223 634 -3072
874 -4823 625 -768 -109 -1508 -332 -2042 -615 l-123 -65 -82 49 c-146 86
-230 142 -368 246 -144 108 -370 324 -463 442 -255 326 -373 680 -338 1017 19
184 55 305 142 482 155 313 440 611 833 869 800 528 1969 859 3296 935 202 12
803 12 1006 1z"/>
<path d="M7347 12584 c-4 -4 -7 -18 -7 -31 0 -17 6 -23 21 -23 16 0 20 5 17
27 -3 26 -18 39 -31 27z"/>
<path d="M7707 12584 c-4 -4 -7 -18 -7 -31 0 -18 5 -24 18 -21 10 2 17 12 17
27 0 24 -15 37 -28 25z"/>
<path d="M7872 12555 c0 -16 2 -22 5 -12 2 9 2 23 0 30 -3 6 -5 -1 -5 -18z"/>
<path d="M6135 12385 c-44 -8 -116 -14 -161 -14 -115 -1 -274 -57 -274 -96 0
-8 8 -19 18 -24 25 -14 271 2 302 19 14 7 57 17 95 21 69 7 205 54 205 71 0
12 -64 38 -87 37 -10 -1 -54 -7 -98 -14z"/>
<path d="M10366 12003 c-11 -11 -6 -23 9 -23 8 0 15 4 15 9 0 13 -16 22 -24
14z"/>
<path d="M10205 11971 c-7 -24 3 -51 20 -51 20 0 28 18 21 46 -7 28 -32 32
-41 5z"/>
<path d="M10408 11913 c-8 -21 -2 -207 8 -210 14 -5 58 169 49 196 -6 20 -50
31 -57 14z"/>
<path d="M10176 11754 c-21 -21 -20 -37 3 -58 38 -34 85 26 49 62 -16 16 -33
15 -52 -4z"/>
<path d="M10220 11511 c-16 -30 -12 -88 7 -106 16 -16 18 -16 35 5 30 37 18
120 -17 120 -8 0 -19 -9 -25 -19z"/>
<path d="M3640 11489 c-35 -7 -53 -18 -78 -49 -25 -30 -41 -40 -63 -40 -32 0
-37 -11 -14 -30 12 -10 19 -10 27 -2 21 21 46 13 67 -21 20 -33 95 -77 107
-64 13 13 -19 67 -42 73 -13 3 -28 12 -35 20 -9 11 -5 17 21 31 56 31 84 58
77 76 -4 10 -10 17 -14 16 -4 -1 -28 -5 -53 -10z"/>
<path d="M5985 11470 c-36 -21 -63 -30 -96 -30 -76 0 -104 -15 -128 -68 -11
-26 -36 -68 -54 -93 -49 -68 -59 -146 -56 -447 1 -167 -2 -256 -10 -275 -15
-39 -13 -129 5 -207 21 -91 22 -94 35 -205 14 -119 30 -165 58 -165 27 0 45
28 87 138 39 100 70 139 137 174 52 26 144 58 168 58 11 0 44 -22 74 -50 61
-56 75 -60 104 -29 24 26 38 83 45 184 7 88 21 114 54 96 23 -12 71 -85 103
-156 21 -46 23 -48 27 -23 7 53 -39 402 -57 433 -36 62 -106 55 -217 -21 -36
-25 -67 -44 -69 -42 -1 2 -8 111 -14 243 -11 234 -30 375 -64 470 -12 35 -18
40 -48 42 -23 2 -50 -7 -84 -27z"/>
<path d="M10387 11396 c-7 -19 18 -40 39 -32 8 3 14 14 12 23 -4 22 -43 29
-51 9z"/>
<path d="M11400 11199 c0 -15 93 -109 109 -109 18 0 13 13 -18 50 -33 40 -91
78 -91 59z"/>
<path d="M3022 10896 c-38 -21 -175 -246 -150 -246 2 0 21 22 42 50 33 44 40
48 57 37 24 -15 36 0 45 55 4 21 18 48 35 64 48 46 28 72 -29 40z"/>
<path d="M2987 10666 c-19 -19 -11 -58 12 -54 18 4 28 45 13 60 -6 6 -15 4
-25 -6z"/>
<path d="M10158 10263 c-22 -5 -24 -16 -38 -166 -6 -64 -16 -132 -21 -150 -23
-81 -10 -97 82 -97 l46 0 23 76 c18 62 38 205 40 286 0 32 -84 65 -132 51z"/>
<path d="M6283 9841 c-108 -51 -131 -55 -176 -25 -22 14 -54 28 -72 31 -29 5
-39 0 -83 -41 -32 -30 -69 -53 -108 -66 -32 -11 -65 -28 -71 -37 -19 -25 -15
-120 7 -183 11 -30 19 -80 20 -111 0 -81 9 -86 123 -71 51 6 200 32 332 57
199 37 243 48 258 66 26 32 23 130 -9 231 -57 181 -96 208 -221 149z"/>
</g>
</svg>
